 <svg  version="1.0" xmlns="http://www.w3.org/2000/svg"  width="300.000000pt" height="220.000000pt" viewBox="0 0 300.000000 220.000000"  preserveAspectRatio="xMidYMid meet">  <g transform="translate(0.000000,220.000000) scale(0.050000,-0.050000)" fill="#db0000" stroke="none"> <path d="M2293 4383 c-32 -13 -693 -1145 -693 -1188 0 -8 626 -15 1392 -15 1215 0 1391 4 1381 29 -24 64 -661 1162 -681 1176 -29 19 -1350 17 -1399 -2z"/> <path d="M1463 2985 c-164 -283 -523 -921 -534 -950 -10 -27 577 -1100 641 -1171 18 -20 163 218 675 1115 l652 1141 -678 0 -677 0 -79 -135z"/> <path d="M3103 2985 c85 -138 1107 -1821 1233 -2031 38 -64 76 -109 84 -100 8 9 161 268 340 575 l326 560 -54 100 c-29 56 -172 308 -318 561 l-265 460 -715 5 -714 6 83 -136z"/> <path d="M2018 1485 c-168 -294 -323 -564 -344 -600 l-38 -65 321 0 320 0 47 85 47 85 132 6 132 6 53 -91 54 -91 774 0 c426 0 786 8 801 18 21 13 -55 151 -323 594 l-351 578 -659 5 -659 6 -307 -536z"/> <path d="M2450 675 c-7 -80 -10 -251 -7 -380 l7 -235 -90 0 -90 0 7 150 6 150 -61 0 c-62 0 -62 -1 -62 -108 0 -119 -13 -132 -133 -132 -147 0 -238 96 -234 246 4 169 214 271 369 180 55 -33 60 -33 92 0 83 82 -177 173 -362 126 -213 -53 -299 -372 -148 -544 l62 -70 -97 6 -97 6 -135 300 c-132 294 -136 300 -201 306 l-66 5 -138 -310 c-131 -296 -141 -311 -195 -311 l-57 0 0 310 0 310 -50 0 c-42 0 -68 -33 -172 -210 -67 -115 -128 -210 -135 -209 -7 0 -67 92 -134 205 -101 170 -130 205 -175 210 l-54 7 0 -312 0 -311 -50 0 c-31 0 -50 -11 -50 -30 0 -23 25 -30 109 -30 l110 0 5 214 6 215 101 -170 c124 -208 134 -208 259 -4 l100 164 10 -204 10 -205 162 -6 161 -6 37 81 36 81 169 0 168 0 32 -80 31 -80 1324 0 1324 0 36 80 36 80 169 0 168 0 32 -80 31 -80 385 0 385 0 32 80 32 80 170 0 170 0 32 -80 c29 -71 40 -80 100 -80 63 0 99 45 51 63 -9 4 -78 144 -153 312 -193 431 -210 431 -403 -5 l-137 -310 -105 0 -105 0 0 260 0 260 110 0 c104 0 110 3 110 50 l0 50 -290 0 -290 0 0 -50 c0 -47 6 -50 110 -50 l110 0 0 -261 0 -261 -104 6 -104 6 -135 300 c-132 293 -137 300 -201 306 l-66 6 -138 -311 -138 -311 -101 0 -101 0 68 70 c93 96 110 281 37 388 -92 134 -135 151 -388 159 l-229 6 0 -311 0 -312 -93 0 c-89 0 -92 2 -60 37 88 97 22 243 -131 284 -47 13 -108 30 -135 38 -66 18 -97 71 -69 116 26 42 165 57 250 27 49 -17 61 -14 80 21 33 63 -4 85 -163 94 -370 21 -449 -294 -94 -378 138 -32 175 -53 175 -97 0 -88 -169 -120 -296 -57 -66 33 -128 -10 -94 -65 7 -12 -21 -20 -69 -20 l-81 0 0 380 0 380 -48 0 c-46 0 -49 -9 -62 -145z m1299 -123 c252 -106 132 -432 -158 -432 l-111 0 0 230 0 230 101 0 c55 0 131 -13 168 -28z m-2419 -124 c71 -161 69 -168 -60 -168 -128 0 -126 -6 -57 155 64 151 56 150 117 13z m3127 -22 c60 -143 58 -146 -67 -146 -128 0 -126 -6 -57 156 59 139 62 138 124 -10z m1282 -121 c1 -17 -34 -25 -111 -25 -128 0 -129 3 -45 191 l44 99 55 -120 c31 -66 56 -131 57 -145z"/> </g> </svg> 