<?xml version="1.0" standalone="no"?>
<!DOCTYPE svg PUBLIC "-//W3C//DTD SVG 20010904//EN"
 "http://www.w3.org/TR/2001/REC-SVG-20010904/DTD/svg10.dtd">
<svg version="1.0" xmlns="http://www.w3.org/2000/svg"
 width="658.000000pt" height="562.000000pt" viewBox="0 0 658.000000 562.000000"
 preserveAspectRatio="xMidYMid meet">

<g transform="translate(0.000000,562.000000) scale(0.100000,-0.100000)"
fill="#D6002A" stroke="none">
<path d="M2158 5603 c-14 -2 -31 -10 -36 -16 -36 -45 -1052 -1852 -1048 -1863
5 -12 349 -14 2199 -14 1207 0 2196 3 2200 6 3 4 -1 21 -10 38 -49 95 -1058
1842 -1067 1848 -11 8 -2189 8 -2238 1z"/>
<path d="M966 3583 c-21 -34 -925 -1624 -955 -1680 -10 -19 -8 -30 10 -65 51
-100 1023 -1804 1033 -1810 6 -4 14 -8 18 -8 3 0 117 192 251 428 261 455 828
1446 1436 2505 204 356 371 652 371 658 0 5 -403 9 -1070 9 l-1070 0 -24 -37z"  fill="#ff0032"/>
<path d="M3324 3604 c4 -9 229 -380 502 -825 272 -444 514 -843 538 -886 62
-112 1115 -1835 1132 -1853 9 -9 17 -11 23 -5 10 10 962 1634 1028 1752 19 34
33 66 30 70 -64 117 -995 1733 -1005 1746 -14 16 -81 17 -1135 17 -1034 0
-1119 -1 -1113 -16z" fill="#e9103a"/>
<path d="M2218 1873 c-14 -16 -1012 -1753 -1051 -1829 -9 -17 -13 -34 -10 -38
8 -8 4088 -8 4186 0 58 5 77 11 77 21 0 17 -1083 1808 -1112 1838 -18 20 -33
20 -1047 23 -973 2 -1028 2 -1043 -15z"/>
</g>
</svg>
